{"title":"Reeker 2005 DVDRIP EESTI SUB","uid":8891055,"size":1353980182,"categoryP":"video","categoryS":"movies","magnet":"?xt=urn:btih:5644ca78e7eeacf1d7fc077ba84a46bcbf8ed2dc&amp;dn=Reeker+2005+DVDRIP+EESTI+SUB&amp;tr=udp%3A%2F%2Ftracker.openbittorrent.com%3A80&amp;tr=udp%3A%2F%2Fopen.demonii.com%3A1337&amp;tr=udp%3A%2F%2Ftracker.coppersurfer.tk%3A6969&amp;tr=udp%3A%2F%2Fexodus.desync.com%3A6969","seeders":0,"leechers":2,"uploader":"immri","files":1,"time":1378584000,"description":"Format                                   : AVI\nFormat/Info                              : Audio Video Interleave\nFormat profile                           : OpenDML\nFile size                                : 1.26 GiB\nDuration                                 : 1h 27mn\nOverall bit rate                         : 2 069 Kbps\nWriting application                      : Lavf52.13.0\n\nVideo\nID                                       : 0\nFormat                                   : MPEG-4 Visual\nFormat profile                           : Advanced Simple@L1\nFormat settings, BVOP                    : 2\nFormat settings, QPel                    : No\nFormat settings, GMC                     : No warppoints\nFormat settings, Matrix                  : Default (H.263)\nCodec ID                                 : DX50\nCodec ID/Hint                            : DivX 5\nDuration                                 : 1h 27mn\nBit rate                                 : 1 862 Kbps\nWidth                                    : 720 pixels\nHeight                                   : 576 pixels\nDisplay aspect ratio                     : 16:9\nFrame rate                               : 25.000 fps\nStandard                                 : PAL\nColor space                              : YUV\nChroma subsampling                       : 4:2:0\nBit depth                                : 8 bits\nScan type                                : Progressive\nCompression mode                         : Lossy\nBits/(Pixel*Frame)                       : 0.180\nStream size                              : 1.13 GiB (90%)\nWriting library                          : Lavc51.54.0\n\nAudio\nID                                       : 1\nFormat                                   : MPEG Audio\nFormat version                           : Version 1\nFormat profile                           : Layer 3\nMode                                     : Joint stereo\nMode extension                           : MS Stereo\nCodec ID                                 : 55\nCodec ID/Hint                            : MP3\nDuration                                 : 1h 27mn\nBit rate mode                            : Constant\nBit rate                                 : 192 Kbps\nChannel(s)                               : 2 channels\nSampling rate                            : 44.1 KHz\nCompression mode                         : Lossy\nStream size                              : 120 MiB (9%)\nAlignment                                : Aligned on interleaves\nInterleave, duration                     : 26 ms (0.65 video frame)\n\n","torrent":{"xt":"urn:btih:5644ca78e7eeacf1d7fc077ba84a46bcbf8ed2dc","amp;dn":"Reeker+2005+DVDRIP+EESTI+SUB","amp;tr":["udp%3A%2F%2Ftracker.openbittorrent.com%3A80","udp%3A%2F%2Fopen.demonii.com%3A1337","udp%3A%2F%2Ftracker.coppersurfer.tk%3A6969","udp%3A%2F%2Fexodus.desync.com%3A6969"],"infoHash":"5644ca78e7eeacf1d7fc077ba84a46bcbf8ed2dc","infoHashBuffer":{"type":"Buffer","data":[86,68,202,120,231,238,172,241,215,252,7,123,168,74,70,188,191,142,210,220]},"announce":[],"urlList":[]}}